<mxfile host="65bd71144e">
    <diagram id="mmwnqcUMtfriZWMQY6Y6" name="Page-1">
        <mxGraphModel dx="1071" dy="385" grid="0" gridSize="10" guides="1" tooltips="1" connect="1" arrows="1" fold="1" page="1" pageScale="1" pageWidth="580" pageHeight="840" background="#ffffff" math="0" shadow="0">
            <root>
                <mxCell id="0"/>
                <mxCell id="1" parent="0"/>
                <mxCell id="oO--RrEo2czYKlbPNJhs-77" style="edgeStyle=orthogonalEdgeStyle;rounded=1;orthogonalLoop=1;jettySize=auto;html=1;entryX=0.001;entryY=0.58;entryDx=0;entryDy=0;entryPerimeter=0;fontSize=14;endArrow=classicThin;endFill=1;strokeColor=#4D4D4D;" parent="1" source="oO--RrEo2czYKlbPNJhs-8" target="oO--RrEo2czYKlbPNJhs-44" edge="1">
                    <mxGeometry relative="1" as="geometry"/>
                </mxCell>
                <mxCell id="oO--RrEo2czYKlbPNJhs-78" style="edgeStyle=orthogonalEdgeStyle;rounded=1;orthogonalLoop=1;jettySize=auto;html=1;entryX=-0.012;entryY=0.68;entryDx=0;entryDy=0;entryPerimeter=0;fontSize=14;endArrow=classicThin;endFill=1;strokeColor=#4D4D4D;" parent="1" source="oO--RrEo2czYKlbPNJhs-8" target="oO--RrEo2czYKlbPNJhs-43" edge="1">
                    <mxGeometry relative="1" as="geometry"/>
                </mxCell>
                <mxCell id="oO--RrEo2czYKlbPNJhs-79" style="edgeStyle=orthogonalEdgeStyle;rounded=1;orthogonalLoop=1;jettySize=auto;html=1;entryX=0.001;entryY=0.64;entryDx=0;entryDy=0;entryPerimeter=0;fontSize=14;endArrow=classicThin;endFill=1;strokeColor=#4D4D4D;" parent="1" source="oO--RrEo2czYKlbPNJhs-8" target="oO--RrEo2czYKlbPNJhs-41" edge="1">
                    <mxGeometry relative="1" as="geometry"/>
                </mxCell>
                <mxCell id="oO--RrEo2czYKlbPNJhs-80" style="edgeStyle=orthogonalEdgeStyle;rounded=1;orthogonalLoop=1;jettySize=auto;html=1;entryX=0.001;entryY=0.7;entryDx=0;entryDy=0;entryPerimeter=0;fontSize=14;endArrow=classicThin;endFill=1;strokeColor=#4D4D4D;" parent="1" source="oO--RrEo2czYKlbPNJhs-8" target="oO--RrEo2czYKlbPNJhs-29" edge="1">
                    <mxGeometry relative="1" as="geometry"/>
                </mxCell>
                <mxCell id="oO--RrEo2czYKlbPNJhs-81" style="edgeStyle=orthogonalEdgeStyle;rounded=1;orthogonalLoop=1;jettySize=auto;html=1;entryX=-0.01;entryY=0.649;entryDx=0;entryDy=0;entryPerimeter=0;fontSize=14;endArrow=classicThin;endFill=1;strokeColor=#4D4D4D;" parent="1" source="oO--RrEo2czYKlbPNJhs-8" target="oO--RrEo2czYKlbPNJhs-17" edge="1">
                    <mxGeometry relative="1" as="geometry"/>
                </mxCell>
                <mxCell id="1339MnvPoYOh-qx6Hb7q-17" style="edgeStyle=orthogonalEdgeStyle;rounded=1;orthogonalLoop=1;jettySize=auto;html=1;entryX=0;entryY=0.5;entryDx=0;entryDy=0;fontColor=#E6E6E6;strokeColor=#B3B3B3;" parent="1" source="oO--RrEo2czYKlbPNJhs-8" target="1339MnvPoYOh-qx6Hb7q-1" edge="1">
                    <mxGeometry relative="1" as="geometry"/>
                </mxCell>
                <mxCell id="1339MnvPoYOh-qx6Hb7q-35" style="edgeStyle=orthogonalEdgeStyle;rounded=1;orthogonalLoop=1;jettySize=auto;html=1;entryX=0;entryY=0.5;entryDx=0;entryDy=0;fontColor=#E6E6E6;strokeColor=#4D4D4D;" parent="1" source="oO--RrEo2czYKlbPNJhs-8" target="oO--RrEo2czYKlbPNJhs-18" edge="1">
                    <mxGeometry relative="1" as="geometry"/>
                </mxCell>
                <mxCell id="1339MnvPoYOh-qx6Hb7q-36" style="edgeStyle=orthogonalEdgeStyle;rounded=1;orthogonalLoop=1;jettySize=auto;html=1;entryX=0;entryY=0.5;entryDx=0;entryDy=0;fontColor=#E6E6E6;strokeColor=#4D4D4D;" parent="1" source="oO--RrEo2czYKlbPNJhs-8" target="oO--RrEo2czYKlbPNJhs-19" edge="1">
                    <mxGeometry relative="1" as="geometry"/>
                </mxCell>
                <mxCell id="oO--RrEo2czYKlbPNJhs-8" value="&lt;font style=&quot;font-size: 16px&quot; color=&quot;#4d4d4d&quot;&gt;src&lt;/font&gt;" style="html=1;verticalLabelPosition=bottom;align=center;labelBackgroundColor=#ffffff;verticalAlign=top;strokeWidth=2;shadow=0;dashed=0;shape=mxgraph.ios7.icons.folder;fillColor=#4caf50;strokeColor=#FFFFFF;" parent="1" vertex="1">
                    <mxGeometry x="70" y="290" width="76.93" height="50" as="geometry"/>
                </mxCell>
                <mxCell id="oO--RrEo2czYKlbPNJhs-88" style="edgeStyle=orthogonalEdgeStyle;orthogonalLoop=1;jettySize=auto;html=1;entryX=0.007;entryY=0.646;entryDx=0;entryDy=0;entryPerimeter=0;fontSize=14;endArrow=classicThin;endFill=1;strokeColor=#4D4D4D;exitX=0.502;exitY=1.014;exitDx=0;exitDy=0;exitPerimeter=0;rounded=1;" parent="1" source="oO--RrEo2czYKlbPNJhs-17" target="oO--RrEo2czYKlbPNJhs-31" edge="1">
                    <mxGeometry relative="1" as="geometry">
                        <mxPoint x="185" y="1150" as="sourcePoint"/>
                        <Array as="points">
                            <mxPoint x="186" y="1301"/>
                        </Array>
                    </mxGeometry>
                </mxCell>
                <mxCell id="oO--RrEo2czYKlbPNJhs-89" style="edgeStyle=orthogonalEdgeStyle;orthogonalLoop=1;jettySize=auto;html=1;entryX=-0.007;entryY=0.663;entryDx=0;entryDy=0;entryPerimeter=0;fontSize=14;endArrow=classicThin;endFill=1;strokeColor=#4D4D4D;rounded=1;" parent="1" target="oO--RrEo2czYKlbPNJhs-32" edge="1">
                    <mxGeometry relative="1" as="geometry">
                        <mxPoint x="185" y="1140" as="sourcePoint"/>
                        <Array as="points">
                            <mxPoint x="185" y="1392"/>
                        </Array>
                    </mxGeometry>
                </mxCell>
                <mxCell id="oO--RrEo2czYKlbPNJhs-90" style="edgeStyle=orthogonalEdgeStyle;orthogonalLoop=1;jettySize=auto;html=1;entryX=0.007;entryY=0.691;entryDx=0;entryDy=0;entryPerimeter=0;fontSize=14;endArrow=classicThin;endFill=1;strokeColor=#4D4D4D;rounded=1;" parent="1" target="oO--RrEo2czYKlbPNJhs-34" edge="1">
                    <mxGeometry relative="1" as="geometry">
                        <mxPoint x="185" y="1140" as="sourcePoint"/>
                        <Array as="points">
                            <mxPoint x="185" y="1484"/>
                        </Array>
                    </mxGeometry>
                </mxCell>
                <mxCell id="1339MnvPoYOh-qx6Hb7q-16" style="edgeStyle=orthogonalEdgeStyle;rounded=1;orthogonalLoop=1;jettySize=auto;html=1;entryX=0.013;entryY=0.638;entryDx=0;entryDy=0;entryPerimeter=0;fontColor=#E6E6E6;strokeColor=#4D4D4D;" parent="1" target="oO--RrEo2czYKlbPNJhs-30" edge="1">
                    <mxGeometry relative="1" as="geometry">
                        <mxPoint x="185" y="1150" as="sourcePoint"/>
                        <Array as="points">
                            <mxPoint x="185" y="1211"/>
                        </Array>
                    </mxGeometry>
                </mxCell>
                <mxCell id="1339MnvPoYOh-qx6Hb7q-27" style="edgeStyle=orthogonalEdgeStyle;rounded=1;orthogonalLoop=1;jettySize=auto;html=1;entryX=0;entryY=0.5;entryDx=0;entryDy=0;fontColor=#E6E6E6;strokeColor=#B3B3B3;" parent="1" source="oO--RrEo2czYKlbPNJhs-17" target="1339MnvPoYOh-qx6Hb7q-10" edge="1">
                    <mxGeometry relative="1" as="geometry"/>
                </mxCell>
                <mxCell id="oO--RrEo2czYKlbPNJhs-17" value="&lt;font style=&quot;font-size: 16px&quot; color=&quot;#4d4d4d&quot;&gt;rest&lt;/font&gt;" style="html=1;verticalLabelPosition=bottom;align=center;labelBackgroundColor=#ffffff;verticalAlign=top;strokeWidth=2;strokeColor=#FFFFFF;shadow=0;dashed=0;shape=mxgraph.ios7.icons.folder;fillColor=#90A4AE;" parent="1" vertex="1">
                    <mxGeometry x="146.93" y="1090" width="76.93" height="50" as="geometry"/>
                </mxCell>
                <mxCell id="1339MnvPoYOh-qx6Hb7q-33" style="edgeStyle=orthogonalEdgeStyle;rounded=1;orthogonalLoop=1;jettySize=auto;html=1;entryX=0;entryY=0.5;entryDx=0;entryDy=0;fontColor=#E6E6E6;strokeColor=#B3B3B3;" parent="1" source="oO--RrEo2czYKlbPNJhs-18" target="1339MnvPoYOh-qx6Hb7q-32" edge="1">
                    <mxGeometry relative="1" as="geometry"/>
                </mxCell>
                <mxCell id="oO--RrEo2czYKlbPNJhs-18" value="&lt;font color=&quot;#333333&quot;&gt;app.js&lt;/font&gt;" style="rounded=1;whiteSpace=wrap;html=1;strokeColor=#FFFFFF;fillColor=#FFCA28;" parent="1" vertex="1">
                    <mxGeometry x="146.93000000000006" y="1530" width="76.93" height="40" as="geometry"/>
                </mxCell>
                <mxCell id="1339MnvPoYOh-qx6Hb7q-34" style="edgeStyle=orthogonalEdgeStyle;rounded=1;orthogonalLoop=1;jettySize=auto;html=1;entryX=0;entryY=0.5;entryDx=0;entryDy=0;fontColor=#E6E6E6;strokeColor=#B3B3B3;" parent="1" source="oO--RrEo2czYKlbPNJhs-19" target="1339MnvPoYOh-qx6Hb7q-32" edge="1">
                    <mxGeometry relative="1" as="geometry"/>
                </mxCell>
                <mxCell id="oO--RrEo2czYKlbPNJhs-19" value="&lt;font color=&quot;#333333&quot;&gt;index.js&lt;/font&gt;" style="rounded=1;whiteSpace=wrap;html=1;strokeColor=#FFFFFF;fillColor=#FFCA28;" parent="1" vertex="1">
                    <mxGeometry x="146.93000000000006" y="1600" width="76.93" height="40" as="geometry"/>
                </mxCell>
                <mxCell id="1339MnvPoYOh-qx6Hb7q-26" style="edgeStyle=orthogonalEdgeStyle;rounded=1;orthogonalLoop=1;jettySize=auto;html=1;entryX=0;entryY=0.5;entryDx=0;entryDy=0;fontColor=#E6E6E6;strokeColor=#B3B3B3;" parent="1" source="oO--RrEo2czYKlbPNJhs-29" target="1339MnvPoYOh-qx6Hb7q-9" edge="1">
                    <mxGeometry relative="1" as="geometry"/>
                </mxCell>
                <mxCell id="oO--RrEo2czYKlbPNJhs-29" value="&lt;font color=&quot;#4d4d4d&quot;&gt;&lt;span style=&quot;font-size: 16px&quot;&gt;infra&lt;/span&gt;&lt;/font&gt;" style="html=1;verticalLabelPosition=bottom;align=center;labelBackgroundColor=#ffffff;verticalAlign=top;strokeWidth=2;strokeColor=#FFFFFF;shadow=0;dashed=0;shape=mxgraph.ios7.icons.folder;fillColor=#ef5350;" parent="1" vertex="1">
                    <mxGeometry x="146.93" y="1000" width="76.93" height="50" as="geometry"/>
                </mxCell>
                <mxCell id="1339MnvPoYOh-qx6Hb7q-28" style="edgeStyle=orthogonalEdgeStyle;rounded=1;orthogonalLoop=1;jettySize=auto;html=1;entryX=0;entryY=0.5;entryDx=0;entryDy=0;fontColor=#E6E6E6;strokeColor=#B3B3B3;" parent="1" source="oO--RrEo2czYKlbPNJhs-30" target="1339MnvPoYOh-qx6Hb7q-11" edge="1">
                    <mxGeometry relative="1" as="geometry"/>
                </mxCell>
                <mxCell id="oO--RrEo2czYKlbPNJhs-30" value="&lt;font style=&quot;font-size: 16px&quot; color=&quot;#4d4d4d&quot;&gt;controllers&lt;/font&gt;" style="html=1;verticalLabelPosition=bottom;align=center;labelBackgroundColor=#ffffff;verticalAlign=top;strokeWidth=2;strokeColor=#FFFFFF;shadow=0;dashed=0;shape=mxgraph.ios7.icons.folder;fillColor=#FFCA28;" parent="1" vertex="1">
                    <mxGeometry x="223.86" y="1179" width="76.93" height="50" as="geometry"/>
                </mxCell>
                <mxCell id="1339MnvPoYOh-qx6Hb7q-29" style="edgeStyle=orthogonalEdgeStyle;rounded=1;orthogonalLoop=1;jettySize=auto;html=1;entryX=0;entryY=0.5;entryDx=0;entryDy=0;fontColor=#E6E6E6;strokeColor=#B3B3B3;" parent="1" source="oO--RrEo2czYKlbPNJhs-31" target="1339MnvPoYOh-qx6Hb7q-12" edge="1">
                    <mxGeometry relative="1" as="geometry"/>
                </mxCell>
                <mxCell id="oO--RrEo2czYKlbPNJhs-31" value="&lt;font style=&quot;font-size: 16px&quot; color=&quot;#4d4d4d&quot;&gt;middlewares&lt;/font&gt;" style="html=1;verticalLabelPosition=bottom;align=center;labelBackgroundColor=#ffffff;verticalAlign=top;strokeWidth=2;strokeColor=#FFFFFF;shadow=0;dashed=0;shape=mxgraph.ios7.icons.folder;fillColor=#5c6bc0;" parent="1" vertex="1">
                    <mxGeometry x="223.86" y="1269" width="76.93" height="50" as="geometry"/>
                </mxCell>
                <mxCell id="1339MnvPoYOh-qx6Hb7q-30" style="edgeStyle=orthogonalEdgeStyle;rounded=1;orthogonalLoop=1;jettySize=auto;html=1;entryX=0;entryY=0.5;entryDx=0;entryDy=0;fontColor=#E6E6E6;strokeColor=#B3B3B3;" parent="1" source="oO--RrEo2czYKlbPNJhs-32" target="1339MnvPoYOh-qx6Hb7q-13" edge="1">
                    <mxGeometry relative="1" as="geometry"/>
                </mxCell>
                <mxCell id="oO--RrEo2czYKlbPNJhs-32" value="&lt;font style=&quot;font-size: 16px&quot; color=&quot;#4d4d4d&quot;&gt;request-validation&lt;/font&gt;" style="html=1;verticalLabelPosition=bottom;align=center;labelBackgroundColor=#ffffff;verticalAlign=top;strokeWidth=2;strokeColor=#FFFFFF;shadow=0;dashed=0;shape=mxgraph.ios7.icons.folder;fillColor=#90A4AE;" parent="1" vertex="1">
                    <mxGeometry x="223.86" y="1359" width="76.93" height="50" as="geometry"/>
                </mxCell>
                <mxCell id="1339MnvPoYOh-qx6Hb7q-31" style="edgeStyle=orthogonalEdgeStyle;rounded=1;orthogonalLoop=1;jettySize=auto;html=1;fontColor=#E6E6E6;strokeColor=#B3B3B3;" parent="1" source="oO--RrEo2czYKlbPNJhs-34" target="1339MnvPoYOh-qx6Hb7q-15" edge="1">
                    <mxGeometry relative="1" as="geometry"/>
                </mxCell>
                <mxCell id="oO--RrEo2czYKlbPNJhs-34" value="&lt;font style=&quot;font-size: 16px&quot; color=&quot;#4d4d4d&quot;&gt;routes&lt;/font&gt;" style="html=1;verticalLabelPosition=bottom;align=center;labelBackgroundColor=#ffffff;verticalAlign=top;strokeWidth=2;strokeColor=#FFFFFF;shadow=0;dashed=0;shape=mxgraph.ios7.icons.folder;fillColor=#43a047;" parent="1" vertex="1">
                    <mxGeometry x="223.86" y="1449" width="76.93" height="50" as="geometry"/>
                </mxCell>
                <mxCell id="1339MnvPoYOh-qx6Hb7q-25" style="edgeStyle=orthogonalEdgeStyle;rounded=1;orthogonalLoop=1;jettySize=auto;html=1;entryX=0;entryY=0.5;entryDx=0;entryDy=0;fontColor=#E6E6E6;strokeColor=#B3B3B3;" parent="1" source="oO--RrEo2czYKlbPNJhs-41" target="1339MnvPoYOh-qx6Hb7q-8" edge="1">
                    <mxGeometry relative="1" as="geometry"/>
                </mxCell>
                <mxCell id="oO--RrEo2czYKlbPNJhs-41" value="&lt;font color=&quot;#4d4d4d&quot;&gt;&lt;span style=&quot;font-size: 16px&quot;&gt;config&lt;/span&gt;&lt;/font&gt;" style="html=1;verticalLabelPosition=bottom;align=center;labelBackgroundColor=#ffffff;verticalAlign=top;strokeWidth=2;strokeColor=#FFFFFF;shadow=0;dashed=0;shape=mxgraph.ios7.icons.folder;fillColor=#00acc1;" parent="1" vertex="1">
                    <mxGeometry x="146.93" y="910" width="76.93" height="50" as="geometry"/>
                </mxCell>
                <mxCell id="1339MnvPoYOh-qx6Hb7q-24" style="edgeStyle=orthogonalEdgeStyle;rounded=1;orthogonalLoop=1;jettySize=auto;html=1;fontColor=#E6E6E6;strokeColor=#B3B3B3;" parent="1" source="oO--RrEo2czYKlbPNJhs-43" target="1339MnvPoYOh-qx6Hb7q-7" edge="1">
                    <mxGeometry relative="1" as="geometry"/>
                </mxCell>
                <mxCell id="oO--RrEo2czYKlbPNJhs-43" value="&lt;font style=&quot;font-size: 16px&quot; color=&quot;#4d4d4d&quot;&gt;common&lt;/font&gt;" style="html=1;verticalLabelPosition=bottom;align=center;labelBackgroundColor=#ffffff;verticalAlign=top;strokeWidth=2;strokeColor=#FFFFFF;shadow=0;dashed=0;shape=mxgraph.ios7.icons.folder;fillColor=#ab47bc;" parent="1" vertex="1">
                    <mxGeometry x="146.93" y="820" width="76.93" height="50" as="geometry"/>
                </mxCell>
                <mxCell id="oO--RrEo2czYKlbPNJhs-83" style="edgeStyle=orthogonalEdgeStyle;rounded=1;orthogonalLoop=1;jettySize=auto;html=1;entryX=0.003;entryY=0.68;entryDx=0;entryDy=0;entryPerimeter=0;fontSize=14;endArrow=classicThin;endFill=1;strokeColor=#4D4D4D;exitX=0.5;exitY=1;exitDx=0;exitDy=0;exitPerimeter=0;" parent="1" source="oO--RrEo2czYKlbPNJhs-44" target="oO--RrEo2czYKlbPNJhs-47" edge="1">
                    <mxGeometry relative="1" as="geometry"/>
                </mxCell>
                <mxCell id="oO--RrEo2czYKlbPNJhs-84" style="edgeStyle=orthogonalEdgeStyle;rounded=1;orthogonalLoop=1;jettySize=auto;html=1;entryX=-0.005;entryY=0.769;entryDx=0;entryDy=0;entryPerimeter=0;fontSize=14;endArrow=classicThin;endFill=1;strokeColor=#4D4D4D;" parent="1" target="oO--RrEo2czYKlbPNJhs-45" edge="1">
                    <mxGeometry relative="1" as="geometry">
                        <mxPoint x="185" y="430" as="sourcePoint"/>
                        <Array as="points">
                            <mxPoint x="185" y="509"/>
                        </Array>
                    </mxGeometry>
                </mxCell>
                <mxCell id="oO--RrEo2czYKlbPNJhs-85" style="edgeStyle=orthogonalEdgeStyle;rounded=1;orthogonalLoop=1;jettySize=auto;html=1;entryX=-0.011;entryY=0.692;entryDx=0;entryDy=0;entryPerimeter=0;fontSize=14;endArrow=classicThin;endFill=1;strokeColor=#4D4D4D;" parent="1" target="oO--RrEo2czYKlbPNJhs-48" edge="1">
                    <mxGeometry relative="1" as="geometry">
                        <mxPoint x="185" y="430" as="sourcePoint"/>
                        <Array as="points">
                            <mxPoint x="185" y="765"/>
                        </Array>
                    </mxGeometry>
                </mxCell>
                <mxCell id="1339MnvPoYOh-qx6Hb7q-19" style="edgeStyle=orthogonalEdgeStyle;rounded=1;orthogonalLoop=1;jettySize=auto;html=1;fontColor=#E6E6E6;strokeColor=#B3B3B3;" parent="1" source="oO--RrEo2czYKlbPNJhs-44" target="1339MnvPoYOh-qx6Hb7q-2" edge="1">
                    <mxGeometry relative="1" as="geometry"/>
                </mxCell>
                <mxCell id="oO--RrEo2czYKlbPNJhs-44" value="&lt;font style=&quot;font-size: 16px&quot; color=&quot;#4d4d4d&quot;&gt;business&lt;/font&gt;" style="html=1;verticalLabelPosition=bottom;align=center;labelBackgroundColor=#ffffff;verticalAlign=top;strokeWidth=2;strokeColor=#FFFFFF;shadow=0;dashed=0;shape=mxgraph.ios7.icons.folder;fillColor=#90a4ae;" parent="1" vertex="1">
                    <mxGeometry x="146.93" y="380" width="76.93" height="50" as="geometry"/>
                </mxCell>
                <mxCell id="oO--RrEo2czYKlbPNJhs-86" style="edgeStyle=orthogonalEdgeStyle;rounded=1;orthogonalLoop=1;jettySize=auto;html=1;entryX=0.012;entryY=0.633;entryDx=0;entryDy=0;entryPerimeter=0;fontSize=14;endArrow=classicThin;endFill=1;strokeColor=#4D4D4D;" parent="1" source="oO--RrEo2czYKlbPNJhs-45" target="oO--RrEo2czYKlbPNJhs-55" edge="1">
                    <mxGeometry relative="1" as="geometry"/>
                </mxCell>
                <mxCell id="1339MnvPoYOh-qx6Hb7q-20" style="edgeStyle=orthogonalEdgeStyle;rounded=1;orthogonalLoop=1;jettySize=auto;html=1;entryX=0;entryY=0.5;entryDx=0;entryDy=0;fontColor=#E6E6E6;strokeColor=#B3B3B3;" parent="1" source="oO--RrEo2czYKlbPNJhs-45" target="1339MnvPoYOh-qx6Hb7q-3" edge="1">
                    <mxGeometry relative="1" as="geometry"/>
                </mxCell>
                <mxCell id="oO--RrEo2czYKlbPNJhs-45" value="&lt;font style=&quot;font-size: 16px&quot; color=&quot;#4d4d4d&quot;&gt;database&lt;/font&gt;" style="html=1;verticalLabelPosition=bottom;align=center;labelBackgroundColor=#ffffff;verticalAlign=top;strokeWidth=2;strokeColor=#FFFFFF;shadow=0;dashed=0;shape=mxgraph.ios7.icons.folder;fillColor=#ffca28;" parent="1" vertex="1">
                    <mxGeometry x="223.86" y="470" width="76.93" height="50" as="geometry"/>
                </mxCell>
                <mxCell id="1339MnvPoYOh-qx6Hb7q-22" style="edgeStyle=orthogonalEdgeStyle;rounded=1;orthogonalLoop=1;jettySize=auto;html=1;entryX=0;entryY=0.5;entryDx=0;entryDy=0;fontColor=#E6E6E6;strokeColor=#B3B3B3;" parent="1" source="oO--RrEo2czYKlbPNJhs-47" target="1339MnvPoYOh-qx6Hb7q-5" edge="1">
                    <mxGeometry relative="1" as="geometry"/>
                </mxCell>
                <mxCell id="oO--RrEo2czYKlbPNJhs-47" value="&lt;font style=&quot;font-size: 16px&quot; color=&quot;#4d4d4d&quot;&gt;repository&lt;/font&gt;&lt;span style=&quot;color: rgba(0 , 0 , 0 , 0) ; font-family: monospace ; font-size: 0px ; background-color: rgb(248 , 249 , 250)&quot;&gt;%3CmxGraphModel%3E%3Croot%3E%3CmxCell%20id%3D%220%22%2F%3E%3CmxCell%20id%3D%221%22%20parent%3D%220%22%2F%3E%3CmxCell%20id%3D%222%22%20value%3D%22%26lt%3Bfont%20style%3D%26quot%3Bfont-size%3A%2016px%26quot%3B%20color%3D%26quot%3B%234d4d4d%26quot%3B%26gt%3Bgateway%26lt%3B%2Ffont%26gt%3B%22%20style%3D%22html%3D1%3BverticalLabelPosition%3Dbottom%3Balign%3Dcenter%3BlabelBackgroundColor%3D%23ffffff%3BverticalAlign%3Dtop%3BstrokeWidth%3D2%3BstrokeColor%3D%23FFFFFF%3Bshadow%3D0%3Bdashed%3D0%3Bshape%3Dmxgraph.ios7.icons.folder%3BfillColor%3D%23808080%3B%22%20vertex%3D%221%22%20parent%3D%221%22%3E%3CmxGeometry%20x%3D%22375%22%20y%3D%22260%22%20width%3D%2276.93%22%20height%3D%2250%22%20as%3D%22geometry%22%2F%3E%3C%2FmxCell%3E%3C%2Froot%3E%3C%2FmxGraphModel%3E&lt;/span&gt;" style="html=1;verticalLabelPosition=bottom;align=center;labelBackgroundColor=#ffffff;verticalAlign=top;strokeWidth=2;strokeColor=#FFFFFF;shadow=0;dashed=0;shape=mxgraph.ios7.icons.folder;fillColor=#90A4AE;" parent="1" vertex="1">
                    <mxGeometry x="223.86" y="640" width="76.93" height="50" as="geometry"/>
                </mxCell>
                <mxCell id="1339MnvPoYOh-qx6Hb7q-23" style="edgeStyle=orthogonalEdgeStyle;rounded=1;orthogonalLoop=1;jettySize=auto;html=1;entryX=0;entryY=0.5;entryDx=0;entryDy=0;fontColor=#E6E6E6;strokeColor=#B3B3B3;" parent="1" source="oO--RrEo2czYKlbPNJhs-48" target="1339MnvPoYOh-qx6Hb7q-6" edge="1">
                    <mxGeometry relative="1" as="geometry"/>
                </mxCell>
                <mxCell id="oO--RrEo2czYKlbPNJhs-48" value="&lt;font color=&quot;#4d4d4d&quot;&gt;&lt;span style=&quot;font-size: 16px&quot;&gt;services&lt;/span&gt;&lt;/font&gt;" style="html=1;verticalLabelPosition=bottom;align=center;labelBackgroundColor=#ffffff;verticalAlign=top;strokeWidth=2;strokeColor=#FFFFFF;shadow=0;dashed=0;shape=mxgraph.ios7.icons.folder;fillColor=#FFCA28;" parent="1" vertex="1">
                    <mxGeometry x="223.86" y="730" width="76.93" height="50" as="geometry"/>
                </mxCell>
                <mxCell id="1339MnvPoYOh-qx6Hb7q-21" style="edgeStyle=orthogonalEdgeStyle;rounded=1;orthogonalLoop=1;jettySize=auto;html=1;entryX=0;entryY=0.5;entryDx=0;entryDy=0;fontColor=#E6E6E6;strokeColor=#B3B3B3;" parent="1" source="oO--RrEo2czYKlbPNJhs-55" target="1339MnvPoYOh-qx6Hb7q-4" edge="1">
                    <mxGeometry relative="1" as="geometry"/>
                </mxCell>
                <mxCell id="oO--RrEo2czYKlbPNJhs-55" value="&lt;font color=&quot;#4d4d4d&quot;&gt;&lt;span style=&quot;font-size: 16px&quot;&gt;queries&lt;/span&gt;&lt;/font&gt;" style="html=1;verticalLabelPosition=bottom;align=center;labelBackgroundColor=#ffffff;verticalAlign=top;strokeWidth=2;strokeColor=#FFFFFF;shadow=0;dashed=0;shape=mxgraph.ios7.icons.folder;fillColor=#90A4AE;" parent="1" vertex="1">
                    <mxGeometry x="300.79" y="560" width="76.93" height="50" as="geometry"/>
                </mxCell>
                <mxCell id="1339MnvPoYOh-qx6Hb7q-1" value="&lt;ul&gt;&lt;li&gt;&lt;font style=&quot;font-family: &amp;#34;helvetica&amp;#34; ; font-size: 14px&quot; color=&quot;#333333&quot;&gt;Onde se encontra todo o código principal da aplicação.&lt;/font&gt;&lt;/li&gt;&lt;/ul&gt;" style="rounded=1;whiteSpace=wrap;html=1;verticalAlign=middle;align=left;fontColor=#E6E6E6;strokeColor=#4CAF50;fillColor=#4CAF50;" parent="1" vertex="1">
                    <mxGeometry x="430" y="302.5" width="650" height="25" as="geometry"/>
                </mxCell>
                <mxCell id="1339MnvPoYOh-qx6Hb7q-2" value="&lt;ul&gt;&lt;li&gt;&lt;font style=&quot;font-family: &amp;#34;helvetica&amp;#34; ; font-size: 14px&quot; color=&quot;#333333&quot;&gt;Comunicação com o banco de dados e regras de negócio.&lt;/font&gt;&lt;/li&gt;&lt;/ul&gt;" style="rounded=1;whiteSpace=wrap;html=1;verticalAlign=middle;align=left;fontColor=#E6E6E6;strokeColor=#90A4AE;fillColor=#90A4AE;" parent="1" vertex="1">
                    <mxGeometry x="430" y="392.5" width="650" height="25" as="geometry"/>
                </mxCell>
                <mxCell id="1339MnvPoYOh-qx6Hb7q-3" value="&lt;ul&gt;&lt;li&gt;&lt;font style=&quot;font-family: &amp;#34;helvetica&amp;#34; ; font-size: 14px&quot; color=&quot;#333333&quot;&gt;Arquivos relacionados a comunicação com o banco de dados.&lt;/font&gt;&lt;/li&gt;&lt;/ul&gt;" style="rounded=1;whiteSpace=wrap;html=1;verticalAlign=middle;align=left;strokeColor=#FFCA28;fillColor=#FFCA28;" parent="1" vertex="1">
                    <mxGeometry x="430" y="482.5" width="650" height="25" as="geometry"/>
                </mxCell>
                <mxCell id="1339MnvPoYOh-qx6Hb7q-4" value="&lt;ul&gt;&lt;li&gt;&lt;font style=&quot;font-family: &amp;#34;helvetica&amp;#34; ; font-size: 14px&quot; color=&quot;#333333&quot;&gt;Scripts de comunicação com o banco de dados.&lt;/font&gt;&lt;/li&gt;&lt;/ul&gt;" style="rounded=1;whiteSpace=wrap;html=1;verticalAlign=middle;align=left;fontColor=#E6E6E6;strokeColor=#90A4AE;fillColor=#90A4AE;" parent="1" vertex="1">
                    <mxGeometry x="430" y="572.5" width="650" height="25" as="geometry"/>
                </mxCell>
                <mxCell id="1339MnvPoYOh-qx6Hb7q-5" value="&lt;ul&gt;&lt;li&gt;&lt;font style=&quot;font-family: &amp;#34;helvetica&amp;#34; ; font-size: 14px&quot; color=&quot;#333333&quot;&gt;Recebe requisições do &lt;b&gt;service&lt;/b&gt;.&lt;/font&gt;&lt;/li&gt;&lt;li&gt;&lt;font style=&quot;font-family: &amp;#34;helvetica&amp;#34; ; font-size: 14px&quot; color=&quot;#333333&quot;&gt;Faz a comunicação com o banco de dados.&lt;/font&gt;&lt;/li&gt;&lt;li&gt;&lt;font style=&quot;font-family: &amp;#34;helvetica&amp;#34; ; font-size: 14px&quot; color=&quot;#333333&quot;&gt;Retorna o resultado da consulta para o &lt;b&gt;service&lt;/b&gt;.&lt;/font&gt;&lt;/li&gt;&lt;/ul&gt;" style="rounded=1;whiteSpace=wrap;html=1;verticalAlign=middle;align=left;fontColor=#E6E6E6;fillColor=#90A4AE;strokeColor=#90A4AE;" parent="1" vertex="1">
                    <mxGeometry x="430" y="635" width="650" height="60" as="geometry"/>
                </mxCell>
                <mxCell id="1339MnvPoYOh-qx6Hb7q-6" value="&lt;ul&gt;&lt;li&gt;&lt;font style=&quot;font-family: &amp;#34;helvetica&amp;#34; ; font-size: 14px&quot; color=&quot;#333333&quot;&gt;Recebe requisições do &lt;b&gt;controller&lt;/b&gt;.&lt;/font&gt;&lt;/li&gt;&lt;li&gt;&lt;font style=&quot;font-family: &amp;#34;helvetica&amp;#34; ; font-size: 14px&quot; color=&quot;#333333&quot;&gt;Aplica regras de negócio aos dados recebidos.&lt;/font&gt;&lt;/li&gt;&lt;li&gt;&lt;font style=&quot;font-family: &amp;#34;helvetica&amp;#34; ; font-size: 14px&quot; color=&quot;#333333&quot;&gt;Caso necessário, faz a comunicação com o banco de dados através da &lt;b&gt;repository&lt;/b&gt;.&lt;/font&gt;&lt;/li&gt;&lt;li&gt;&lt;font style=&quot;font-family: &amp;#34;helvetica&amp;#34; ; font-size: 14px&quot; color=&quot;#333333&quot;&gt;Após aplicadas as devidas regras de negócio, envia a resposta ao &lt;b&gt;controller&lt;/b&gt;.&lt;/font&gt;&lt;/li&gt;&lt;/ul&gt;" style="rounded=1;whiteSpace=wrap;html=1;verticalAlign=middle;align=left;strokeColor=#FFCA28;fillColor=#FFCA28;" parent="1" vertex="1">
                    <mxGeometry x="430" y="715" width="650" height="80" as="geometry"/>
                </mxCell>
                <mxCell id="1339MnvPoYOh-qx6Hb7q-7" value="&lt;ul&gt;&lt;li&gt;&lt;font style=&quot;font-family: &amp;#34;helvetica&amp;#34; ; font-size: 14px&quot; color=&quot;#333333&quot;&gt;Scripts de utilização comum, com classificação mais genérica.&lt;/font&gt;&lt;/li&gt;&lt;/ul&gt;" style="rounded=1;whiteSpace=wrap;html=1;verticalAlign=middle;align=left;fontColor=#E6E6E6;fillColor=#ab47bc;strokeColor=#ab47bc;" parent="1" vertex="1">
                    <mxGeometry x="430" y="832.5" width="650" height="25" as="geometry"/>
                </mxCell>
                <mxCell id="1339MnvPoYOh-qx6Hb7q-8" value="&lt;ul&gt;&lt;li&gt;&lt;font style=&quot;font-family: &amp;#34;helvetica&amp;#34; ; font-size: 14px&quot; color=&quot;#333333&quot;&gt;Configurações gerais da aplicação, como endereçamento de banco de dados por exemplo.&lt;/font&gt;&lt;/li&gt;&lt;/ul&gt;" style="rounded=1;whiteSpace=wrap;html=1;verticalAlign=middle;align=left;fontColor=#4D4D4D;strokeColor=#00ACC1;fillColor=#00ACC1;" parent="1" vertex="1">
                    <mxGeometry x="430" y="922.5" width="650" height="25" as="geometry"/>
                </mxCell>
                <mxCell id="1339MnvPoYOh-qx6Hb7q-9" value="&lt;ul&gt;&lt;li&gt;&lt;font style=&quot;font-family: &amp;#34;helvetica&amp;#34; ; font-size: 14px&quot; color=&quot;#333333&quot;&gt;Arquivos relacionados a decodificações, abstrações de comunicação com o banco de dados ou qualquer script relacionado a infraestrutura da aplicação.&lt;/font&gt;&lt;/li&gt;&lt;/ul&gt;" style="rounded=1;whiteSpace=wrap;html=1;verticalAlign=middle;align=left;fontColor=#E6E6E6;fillColor=#ef5350;strokeColor=#EF5350;" parent="1" vertex="1">
                    <mxGeometry x="430" y="1005" width="650" height="40" as="geometry"/>
                </mxCell>
                <mxCell id="1339MnvPoYOh-qx6Hb7q-10" value="&lt;ul&gt;&lt;li&gt;&lt;font style=&quot;font-family: &amp;#34;helvetica&amp;#34; ; font-size: 14px&quot;&gt;Arquivos responsáveis pela comunicação com o cliente.&lt;/font&gt;&lt;/li&gt;&lt;/ul&gt;" style="rounded=1;whiteSpace=wrap;html=1;verticalAlign=middle;align=left;fontColor=#E6E6E6;strokeColor=#90A4AE;fillColor=#90A4AE;" parent="1" vertex="1">
                    <mxGeometry x="430" y="1102.5" width="650" height="25" as="geometry"/>
                </mxCell>
                <mxCell id="1339MnvPoYOh-qx6Hb7q-11" value="&lt;ul&gt;&lt;li&gt;&lt;font style=&quot;font-family: &amp;#34;helvetica&amp;#34; ; font-size: 14px&quot; color=&quot;#333333&quot;&gt;Recebe a requisição que foi direcionada por um arquivo &lt;b&gt;router&lt;/b&gt;.&lt;/font&gt;&lt;/li&gt;&lt;li&gt;&lt;font style=&quot;font-family: &amp;#34;helvetica&amp;#34; ; font-size: 14px&quot; color=&quot;#333333&quot;&gt;Extrai os dados e repassa para o &lt;b&gt;service &lt;/b&gt;aplicar as devidas regras de negócio.&lt;/font&gt;&lt;/li&gt;&lt;li&gt;&lt;span style=&quot;font-family: &amp;#34;helvetica&amp;#34; ; font-size: 14px&quot;&gt;&lt;font color=&quot;#333333&quot;&gt;Recebe o retorno do &lt;b&gt;service &lt;/b&gt;e repassa a resposta para o cliente.&lt;/font&gt;&lt;/span&gt;&lt;br&gt;&lt;/li&gt;&lt;/ul&gt;" style="rounded=1;whiteSpace=wrap;html=1;verticalAlign=middle;align=left;fillColor=#FFCA28;strokeColor=#FFCA28;" parent="1" vertex="1">
                    <mxGeometry x="430" y="1174" width="650" height="60" as="geometry"/>
                </mxCell>
                <mxCell id="1339MnvPoYOh-qx6Hb7q-12" value="&lt;ul&gt;&lt;li&gt;&lt;font face=&quot;helvetica&quot; color=&quot;#333333&quot;&gt;&lt;span style=&quot;font-size: 14px&quot;&gt;Todo tipo de script que está entre um pedido HTTP e a resposta que o servidor envia ao cliente.&lt;/span&gt;&lt;/font&gt;&lt;/li&gt;&lt;/ul&gt;" style="rounded=1;whiteSpace=wrap;html=1;verticalAlign=middle;align=left;fontColor=#E6E6E6;strokeColor=#5C6BC0;fillColor=#5C6BC0;" parent="1" vertex="1">
                    <mxGeometry x="430" y="1280.75" width="650" height="26.5" as="geometry"/>
                </mxCell>
                <mxCell id="1339MnvPoYOh-qx6Hb7q-13" value="&lt;ul&gt;&lt;li&gt;&lt;font style=&quot;font-family: &amp;#34;helvetica&amp;#34; ; font-size: 14px&quot; color=&quot;#333333&quot;&gt;Scripts relacionados a validações de dados presentes nas requisições.&lt;/font&gt;&lt;/li&gt;&lt;/ul&gt;" style="rounded=1;whiteSpace=wrap;html=1;verticalAlign=middle;align=left;fontColor=#E6E6E6;fillColor=#90A4AE;strokeColor=#90A4AE;" parent="1" vertex="1">
                    <mxGeometry x="430" y="1371.5" width="650" height="25" as="geometry"/>
                </mxCell>
                <mxCell id="1339MnvPoYOh-qx6Hb7q-15" value="&lt;ul&gt;&lt;li&gt;&lt;font style=&quot;font-family: &amp;#34;helvetica&amp;#34; ; font-size: 14px&quot; color=&quot;#333333&quot;&gt;Arquivos responsáveis por direcionar as requisições HTTP para o respectivo &lt;b&gt;controller&lt;/b&gt;, de acordo com o seu endereço.&lt;/font&gt;&lt;/li&gt;&lt;/ul&gt;" style="rounded=1;whiteSpace=wrap;html=1;verticalAlign=middle;align=left;fontColor=#E6E6E6;fillColor=#43A047;strokeColor=#43A047;" parent="1" vertex="1">
                    <mxGeometry x="430" y="1451.5" width="650" height="45" as="geometry"/>
                </mxCell>
                <mxCell id="1339MnvPoYOh-qx6Hb7q-32" value="&lt;ul&gt;&lt;li&gt;&lt;font face=&quot;helvetica&quot; color=&quot;#333333&quot;&gt;&lt;span style=&quot;font-size: 14px&quot;&gt;Arquivos de configuração inicial do servidor&lt;/span&gt;&lt;/font&gt;&lt;/li&gt;&lt;/ul&gt;" style="rounded=1;whiteSpace=wrap;html=1;verticalAlign=middle;align=left;strokeColor=#FFCA28;fillColor=#FFCA28;" parent="1" vertex="1">
                    <mxGeometry x="430" y="1570" width="650" height="30" as="geometry"/>
                </mxCell>
                <mxCell id="sAQejAdA6EmIXdl3wfkT-6" style="edgeStyle=orthogonalEdgeStyle;rounded=0;orthogonalLoop=1;jettySize=auto;html=1;entryX=0;entryY=0.5;entryDx=0;entryDy=0;strokeColor=#B3B3B3;" parent="1" source="sAQejAdA6EmIXdl3wfkT-1" target="sAQejAdA6EmIXdl3wfkT-4" edge="1">
                    <mxGeometry relative="1" as="geometry"/>
                </mxCell>
                <mxCell id="sAQejAdA6EmIXdl3wfkT-1" value="&lt;font style=&quot;font-size: 16px&quot; color=&quot;#4d4d4d&quot;&gt;__tests__&lt;/font&gt;" style="html=1;verticalLabelPosition=bottom;align=center;labelBackgroundColor=#ffffff;verticalAlign=top;strokeWidth=2;strokeColor=#FFFFFF;shadow=0;dashed=0;shape=mxgraph.ios7.icons.folder;fillColor=#00bfa5;" parent="1" vertex="1">
                    <mxGeometry x="70" y="40" width="76.93" height="50" as="geometry"/>
                </mxCell>
                <mxCell id="sAQejAdA6EmIXdl3wfkT-4" value="&lt;ul&gt;&lt;li&gt;&lt;font face=&quot;helvetica&quot; color=&quot;#333333&quot;&gt;&lt;span style=&quot;font-size: 14px&quot;&gt;Arquivos de teste e mocks.&lt;/span&gt;&lt;/font&gt;&lt;/li&gt;&lt;/ul&gt;" style="rounded=1;whiteSpace=wrap;html=1;verticalAlign=middle;align=left;fontColor=#E6E6E6;fillColor=#00BFA5;strokeColor=#00BFA5;" parent="1" vertex="1">
                    <mxGeometry x="430" y="52.5" width="650" height="25" as="geometry"/>
                </mxCell>
                <mxCell id="sAQejAdA6EmIXdl3wfkT-10" style="edgeStyle=orthogonalEdgeStyle;rounded=0;orthogonalLoop=1;jettySize=auto;html=1;entryX=0;entryY=0.5;entryDx=0;entryDy=0;strokeColor=#B3B3B3;" parent="1" source="sAQejAdA6EmIXdl3wfkT-11" target="sAQejAdA6EmIXdl3wfkT-12" edge="1">
                    <mxGeometry relative="1" as="geometry"/>
                </mxCell>
                <mxCell id="sAQejAdA6EmIXdl3wfkT-11" value="&lt;font style=&quot;font-size: 16px&quot; color=&quot;#4d4d4d&quot;&gt;coverage&lt;/font&gt;" style="html=1;verticalLabelPosition=bottom;align=center;labelBackgroundColor=#ffffff;verticalAlign=top;strokeWidth=2;strokeColor=#FFFFFF;shadow=0;dashed=0;shape=mxgraph.ios7.icons.folder;fillColor=#26a69a;" parent="1" vertex="1">
                    <mxGeometry x="70" y="130" width="76.93" height="50" as="geometry"/>
                </mxCell>
                <mxCell id="sAQejAdA6EmIXdl3wfkT-12" value="&lt;ul&gt;&lt;li&gt;&lt;font face=&quot;helvetica&quot; color=&quot;#333333&quot;&gt;&lt;span style=&quot;font-size: 14px&quot;&gt;Arquivos de apresentação da cobertura dos testes (informações na página de ferramentas).&lt;/span&gt;&lt;/font&gt;&lt;/li&gt;&lt;/ul&gt;" style="rounded=1;whiteSpace=wrap;html=1;verticalAlign=middle;align=left;fontColor=#E6E6E6;fillColor=#26A69A;strokeColor=#26A69A;" parent="1" vertex="1">
                    <mxGeometry x="430" y="142.5" width="650" height="25" as="geometry"/>
                </mxCell>
                <mxCell id="sAQejAdA6EmIXdl3wfkT-13" style="edgeStyle=orthogonalEdgeStyle;rounded=1;orthogonalLoop=1;jettySize=auto;html=1;entryX=0;entryY=0.5;entryDx=0;entryDy=0;fontColor=#E6E6E6;strokeColor=#B3B3B3;" parent="1" source="sAQejAdA6EmIXdl3wfkT-14" target="sAQejAdA6EmIXdl3wfkT-15" edge="1">
                    <mxGeometry relative="1" as="geometry"/>
                </mxCell>
                <mxCell id="sAQejAdA6EmIXdl3wfkT-14" value="&lt;font style=&quot;font-size: 16px&quot; color=&quot;#4d4d4d&quot;&gt;docs&lt;/font&gt;" style="html=1;verticalLabelPosition=bottom;align=center;labelBackgroundColor=#ffffff;verticalAlign=top;strokeWidth=2;strokeColor=#FFFFFF;shadow=0;dashed=0;shape=mxgraph.ios7.icons.folder;fillColor=#0277bd;" parent="1" vertex="1">
                    <mxGeometry x="70" y="210" width="76.93" height="50" as="geometry"/>
                </mxCell>
                <mxCell id="sAQejAdA6EmIXdl3wfkT-15" value="&lt;ul&gt;&lt;li&gt;&lt;font face=&quot;helvetica&quot; color=&quot;#333333&quot;&gt;&lt;span style=&quot;font-size: 14px&quot;&gt;Arquivos e imagens relacionados a documentação.&lt;/span&gt;&lt;/font&gt;&lt;/li&gt;&lt;/ul&gt;" style="rounded=1;whiteSpace=wrap;html=1;verticalAlign=middle;align=left;fontColor=#E6E6E6;strokeColor=#0277BD;fillColor=#0277bd;" parent="1" vertex="1">
                    <mxGeometry x="430" y="221.87" width="650" height="26.25" as="geometry"/>
                </mxCell>
            </root>
        </mxGraphModel>
    </diagram>
</mxfile>
